<?xml version="1.0" encoding="UTF-8"?>
<svg width="128px" height="128px" viewBox="0 0 128 128" version="1.1" xmlns="http://www.w3.org/2000/svg" xmlns:xlink="http://www.w3.org/1999/xlink">
    <!-- Generator: Sketch 41.1 (35376) - http://www.bohemiancoding.com/sketch -->
    <title>logo</title>
    <desc>Created with Sketch.</desc>
    <defs></defs>
    <g id="Page-1" stroke="none" stroke-width="1" fill="none" fill-rule="evenodd">
        <g id="Home" transform="translate(-656.000000, -51.000000)">
            <g id="logo" transform="translate(656.000000, 51.000000)">
                <g id="Page-1">
                    <g>
                        <g id="Group-4">
                            <circle id="Oval" fill="#A52929" cx="64" cy="64" r="64"></circle>
                            <g id="Group-3" transform="translate(6.000000, 0.000000)">
                                <circle id="Oval" fill="#CA3C3C" cx="61" cy="61" r="61"></circle>
                                <g id="Group-2" transform="translate(5.000000, 5.000000)" fill="#FFFFFF">
                                    <g id="img_385564" transform="translate(58.312335, 55.944803) rotate(50.000000) translate(-58.312335, -55.944803) translate(26.812335, 6.944803)">
                                        <g id="Group" transform="translate(0.630229, 0.773504)">
                                            <path d="M61.1104034,69.1552561 L56.9733932,84.8804313 C56.8441116,85.3736927 56.4861011,85.7781671 56.0087538,85.9557412 C55.8297485,86.0247978 55.6407986,86.0543935 55.4518486,86.0543935 C55.1435618,86.0543935 54.8352749,85.9656065 54.5767118,85.7880323 L46.1336308,80.1155256 C45.6662282,79.7998383 45.3977204,79.2671159 45.4374993,78.7047978 L45.676173,74.6304582 C45.5966151,74.7784367 45.5170572,74.9362803 45.4275546,75.0743935 C43.8861205,77.6294879 42.1159574,79.7603774 40.2364023,81.4374663 L38.5756314,78.6752022 C39.5502155,77.7478706 40.4949655,76.6528302 41.380047,75.439407 L19.899417,75.439407 C20.7944432,76.6626954 21.7391931,77.7676011 22.723722,78.7047978 L21.0629511,81.467062 C19.1734512,79.789973 17.4032882,77.6492183 15.8419646,75.0842588 C15.752462,74.9362803 15.6729041,74.7784367 15.5933462,74.6304582 L15.8320199,78.7146631 C15.8618541,79.2769811 15.603291,79.8097035 15.1358884,80.1253908 L6.69280741,85.7978976 C6.43424427,85.9754717 6.12595745,86.0642588 5.81767063,86.0642588 C5.62872064,86.0642588 5.43977065,86.0346631 5.2607654,85.9656065 C4.78341807,85.7880323 4.42540757,85.383558 4.296126,84.8902965 L0.149171042,69.1552561 C0.0397789445,68.7507817 0.0994473611,68.3265768 0.30828682,67.9615633 L9.35799668,52.0094879 C9.53700193,51.6938005 9.82539928,51.457035 10.1535756,51.3189218 C10.024294,47.6786523 10.1535756,44.1074394 10.5811992,40.9111051 C14.4497016,11.9467925 29.0386295,0.986522911 29.6651478,0.325552561 C29.8640426,0.118382749 30.112661,-2.13162821e-14 30.3712241,-2.13162821e-14 L30.9082398,-2.13162821e-14 C31.166803,-2.13162821e-14 31.4054767,0.118382749 31.6143161,0.325552561 C32.2308897,0.986522911 46.8297624,11.9467925 50.6982647,40.9111051 C51.1258884,44.1173046 51.2651147,47.6786523 51.1258884,51.3287871 C51.4540647,51.457035 51.7325173,51.6938005 51.9115225,52.0094879 L60.9612324,67.9615633 C61.1601271,68.3265768 61.2197955,68.7507817 61.1104034,69.1552561 Z M12.2220807,65.9687871 C11.4265018,62.9598922 10.8596518,59.6945013 10.5115861,56.3797844 L3.37126554,68.9678167 L6.78231003,81.9208625 L12.6397596,77.9846361 L11.9933518,66.8665229 C11.9635175,66.5311051 12.0629649,66.2351482 12.2220807,65.9687871 Z M30.6297872,3.70932615 C27.3579691,6.75768194 21.818751,13.1996765 17.7811882,24.3375202 C21.4408511,25.0379515 25.4784139,25.4522911 29.8342083,25.4522911 C34.5977369,25.4522911 39.1623708,24.9392992 43.3590495,24.0218329 C39.3413761,13.0812938 33.8717712,6.73795148 30.6297872,3.70932615 Z M47.5557281,41.3254447 C46.8297624,35.8897035 45.7159519,31.1247978 44.3833573,26.9518059 C39.948005,27.9580593 35.0353053,28.5302426 29.8441531,28.5302426 C25.2198508,28.5302426 20.8342222,28.0665768 16.7966593,27.2674933 C15.5038436,31.3714286 14.4198674,36.0278167 13.7137911,41.33531 C12.2419702,52.3646361 14.3403095,66.3633962 18.4872644,73.3183827 L42.7921995,73.3183827 C46.9292097,66.353531 49.027549,52.3547709 47.5557281,41.3254447 Z M50.7579331,56.3896496 C50.4098674,59.7043666 49.8330727,62.9598922 49.0474385,65.9687871 C49.2065543,66.2351482 49.3060017,66.5311051 49.2861122,66.8665229 L48.6297596,77.9846361 L54.4872092,81.9208625 L57.8982537,68.9678167 L50.7579331,56.3896496 Z M25.8264797,79.6814555 C26.4132191,79.6814555 26.9005112,80.1549865 26.9005112,80.7469003 L26.9005112,91.371752 C26.9005112,91.9538005 26.4231639,92.4371968 25.8264797,92.4371968 C25.2397403,92.4371968 24.7524482,91.9636658 24.7524482,91.371752 L24.7524482,80.7469003 C24.7623929,80.1549865 25.2397403,79.6814555 25.8264797,79.6814555 Z M31.1866925,79.6814555 C31.7734319,79.6814555 32.260724,80.1549865 32.260724,80.7469003 L32.260724,87.1198383 C32.260724,87.7018868 31.7833766,88.185283 31.1866925,88.185283 C30.5900083,88.185283 30.112661,87.711752 30.112661,87.1198383 L30.112661,80.7469003 C30.112661,80.1549865 30.5900083,79.6814555 31.1866925,79.6814555 Z M36.5369605,79.6814555 C37.1236999,79.6814555 37.610992,80.1549865 37.610992,80.7469003 L37.610992,95.6138005 C37.610992,96.1958491 37.1336447,96.6792453 36.5369605,96.6792453 C35.9502211,96.6792453 35.462929,96.2057143 35.462929,95.6138005 L35.462929,80.7469003 C35.462929,80.1549865 35.9502211,79.6814555 36.5369605,79.6814555 Z" id="Shape"></path>
                                        </g>
                                    </g>
                                </g>
                            </g>
                        </g>
                    </g>
                </g>
            </g>
        </g>
    </g>
</svg>