<?xml version="1.0" encoding="UTF-8"?>
<svg width="41px" height="16px" viewBox="0 0 41 16" version="1.1" xmlns="http://www.w3.org/2000/svg" xmlns:xlink="http://www.w3.org/1999/xlink">
    <!-- Generator: Sketch 41.1 (35376) - http://www.bohemiancoding.com/sketch -->
    <title>Npm-logo</title>
    <desc>Created with Sketch.</desc>
    <defs></defs>
    <g id="Page-1" stroke="none" stroke-width="1" fill="none" fill-rule="evenodd">
        <g id="Home" transform="translate(-1308.000000, -40.000000)">
            <g id="Npm-logo" transform="translate(1308.000000, 40.000000)">
                <g id="Group">
                    <path d="M0,0 L41,0 L41,13.7142857 L20.5,13.7142857 L20.5,16 L11.3888889,16 L11.3888889,13.7142857 L0,13.7142857 L0,0 Z M2.27777778,11.4285714 L6.83333333,11.4285714 L6.83333333,4.57142857 L9.11111111,4.57142857 L9.11111111,11.4285714 L11.3888889,11.4285714 L11.3888889,2.28571429 L2.27777778,2.28571429 L2.27777778,11.4285714 Z M13.6666667,2.28571429 L13.6666667,13.7142857 L18.2222222,13.7142857 L18.2222222,11.4285714 L22.7777778,11.4285714 L22.7777778,2.28571429 L13.6666667,2.28571429 Z M18.2222222,4.57142857 L20.5,4.57142857 L20.5,9.14285714 L18.2222222,9.14285714 L18.2222222,4.57142857 Z M25.0555556,2.28571429 L25.0555556,11.4285714 L29.6111111,11.4285714 L29.6111111,4.57142857 L31.8888889,4.57142857 L31.8888889,11.4285714 L34.1666667,11.4285714 L34.1666667,4.57142857 L36.4444444,4.57142857 L36.4444444,11.4285714 L38.7222222,11.4285714 L38.7222222,2.28571429 L25.0555556,2.28571429 Z" id="Shape" fill="#CB3837"></path>
                    <polygon id="Shape" fill="#FFFFFF" points="2.27777778 11.4285714 6.83333333 11.4285714 6.83333333 4.57142857 9.11111111 4.57142857 9.11111111 11.4285714 11.3888889 11.4285714 11.3888889 2.28571429 2.27777778 2.28571429"></polygon>
                    <path d="M13.6666667,2.28571429 L13.6666667,13.7142857 L18.2222222,13.7142857 L18.2222222,11.4285714 L22.7777778,11.4285714 L22.7777778,2.28571429 L13.6666667,2.28571429 Z M20.5,9.14285714 L18.2222222,9.14285714 L18.2222222,4.57142857 L20.5,4.57142857 L20.5,9.14285714 Z" id="Shape" fill="#FFFFFF"></path>
                    <polygon id="Shape" fill="#FFFFFF" points="25.0555556 2.28571429 25.0555556 11.4285714 29.6111111 11.4285714 29.6111111 4.57142857 31.8888889 4.57142857 31.8888889 11.4285714 34.1666667 11.4285714 34.1666667 4.57142857 36.4444444 4.57142857 36.4444444 11.4285714 38.7222222 11.4285714 38.7222222 2.28571429"></polygon>
                </g>
            </g>
        </g>
    </g>
</svg>