<?xml version="1.0" encoding="UTF-8"?>
<svg width="27px" height="27px" viewBox="0 0 27 27" version="1.1" xmlns="http://www.w3.org/2000/svg" xmlns:xlink="http://www.w3.org/1999/xlink">
    <!-- Generator: Sketch 41.1 (35376) - http://www.bohemiancoding.com/sketch -->
    <title>1480349591_github</title>
    <desc>Created with Sketch.</desc>
    <defs></defs>
    <g id="Page-1" stroke="none" stroke-width="1" fill="none" fill-rule="evenodd">
        <g id="Home" transform="translate(-1375.000000, -34.000000)" fill="#FFFFFF">
            <g id="1480349591_github" transform="translate(1375.000000, 34.000000)">
                <g id="Layer_1">
                    <path d="M15.6163887,18.6771445 C18.247043,18.3664863 21.0449707,17.4099902 21.0449707,12.8662383 C21.0449707,11.5747734 20.5901895,10.5223008 19.8494824,9.70908398 C19.9689785,9.39847852 20.35125,8.22650977 19.7053066,6.60055078 C19.7053066,6.60055078 18.7487578,6.28952344 16.5012188,7.79598633 C15.5446699,7.53321094 14.4925664,7.36551562 13.5121289,7.36551562 C12.5073809,7.36551562 11.4549082,7.53321094 10.522248,7.79598633 C8.2503457,6.28952344 7.29384961,6.60055078 7.29384961,6.60055078 C6.64832813,8.22650977 7.03107422,9.39847852 7.15051758,9.70908398 C6.40901953,10.522248 5.95466016,11.5747734 5.95466016,12.8662383 C5.95466016,17.4099902 8.75258789,18.3664863 11.3832422,18.6771445 C11.0486953,18.9646523 10.7377207,19.5141973 10.6182246,20.279584 C9.94839258,20.5663535 8.20256836,21.1166367 7.15051758,19.2991465 C7.15051758,19.2991465 6.52851563,18.175377 5.35691602,18.1037109 C5.35691602,18.1037109 4.18494727,18.0798223 5.26130859,18.8204766 C5.26130859,18.8204766 6.05021484,19.1797031 6.57666211,20.5424121 C6.57666211,20.5424121 7.29384961,22.8146836 10.5939141,22.0970215 L10.5939141,24.1295625 C10.5939141,24.4410117 10.3550273,24.7993945 9.7572832,24.7038398 C5.06983008,23.1491777 1.69804688,18.7009805 1.69804688,13.4878711 C1.69804688,6.95898633 6.982875,1.67421094 13.5121289,1.67421094 C20.0167559,1.67421094 25.3258418,6.95903906 25.3019531,13.4878711 C25.3019531,18.7009805 21.9298008,23.1252891 17.2426641,24.7038398 C16.6445508,24.8233359 16.4056113,24.4649531 16.4056113,24.1295625 L16.4056113,20.8538086 C16.4056641,19.753084 16.0464375,19.0363184 15.6163887,18.6771445 L15.6163887,18.6771445 Z M27,13.5121289 C27,6.05021484 20.949416,0 13.5121289,0 C6.05021484,0 0,6.05021484 0,13.5121289 C0,20.949416 6.05021484,27 13.5121289,27 C20.949416,27 27,20.949416 27,13.5121289 L27,13.5121289 Z" id="Shape"></path>
                </g>
            </g>
        </g>
    </g>
</svg>