<svg xmlns="http://www.w3.org/2000/svg" xmlns:xlink="http://www.w3.org/1999/xlink" width="2240" height="1360"><g transform="translate(0 0)"><path d="M0 0h2240v1360H0z" fill="#fff"/><path d="M32 37c0-2.76 2.24-5 5-5h838c2.76 0 5 2.24 5 5v38c0 2.76-2.24 5-5 5H37c-2.76 0-5-2.24-5-5z" fill="none"/><use xlink:href="#a" transform="matrix(1,0,0,1,32,32) translate(0 31.11111111111111)"/><use xlink:href="#b" transform="matrix(1,0,0,1,32,32) translate(117.62962962962965 31.11111111111111)"/><use xlink:href="#c" transform="matrix(1,0,0,1,32,32) translate(301.1358024691358 31.11111111111111)"/><path d="M31.33 80H2208" stroke="#999" stroke-width="2" fill="none"/><path d="M1520 37c0-2.76 2.24-5 5-5h678c2.76 0 5 2.24 5 5v38c0 2.76-2.24 5-5 5h-678c-2.76 0-5-2.24-5-5z" fill="none"/><use xlink:href="#d" transform="matrix(1,0,0,1,1520,32) translate(322.19753086420116 28.4444444444444)"/><use xlink:href="#e" transform="matrix(1,0,0,1,1520,32) translate(404.7283950617312 28.4444444444444)"/><use xlink:href="#f" transform="matrix(1,0,0,1,1520,32) translate(468.86419753086636 28.4444444444444)"/><use xlink:href="#g" transform="matrix(1,0,0,1,1520,32) translate(493.1234567901254 28.4444444444444)"/><use xlink:href="#h" transform="matrix(1,0,0,1,1520,32) translate(601.580246913581 28.4444444444444)"/><use xlink:href="#i" transform="matrix(1,0,0,1,1520,32) translate(638.6172839506178 28.4444444444444)"/><path d="M240 1075c0-2.76 2.24-5 5-5h150c2.76 0 5 2.24 5 5v110c0 2.76-2.24 5-5 5H245c-2.76 0-5-2.24-5-5z" stroke="#333" stroke-opacity=".27" stroke-width="2" fill="#ef8d22"/><use xlink:href="#j" transform="matrix(1,0,0,1,245,1075) translate(34.33333333333333 44.333333333333336)"/><use xlink:href="#k" transform="matrix(1,0,0,1,245,1075) translate(28.370370370370352 76.33333333333334)"/><path d="M32 125c0-2.76 2.24-5 5-5h118c2.76 0 5 2.24 5 5v730c0 2.76-2.24 5-5 5H37c-2.76 0-5-2.24-5-5z" fill="#c1e4f7" fill-opacity=".67"/><use xlink:href="#l" transform="matrix(6.123233995736766e-17,-1,1,6.123233995736766e-17,37,855) translate(211.14814814814812 69.66666666666667)"/><use xlink:href="#m" transform="matrix(6.123233995736766e-17,-1,1,6.123233995736766e-17,37,855) translate(341.22222222222223 69.66666666666667)"/><use xlink:href="#n" transform="matrix(6.123233995736766e-17,-1,1,6.123233995736766e-17,37,855) translate(432.925925925926 69.66666666666667)"/><path d="M32 925c0-2.76 2.24-5 5-5h118c2.76 0 5 2.24 5 5v410c0 2.76-2.24 5-5 5H37c-2.76 0-5-2.24-5-5z" fill="#c1e4f7" fill-opacity=".67"/><use xlink:href="#l" transform="matrix(6.123233995736766e-17,-1,1,6.123233995736766e-17,37,1335) translate(37.96296296296293 69.66666666666667)"/><use xlink:href="#m" transform="matrix(6.123233995736766e-17,-1,1,6.123233995736766e-17,37,1335) translate(168.03703703703704 69.66666666666667)"/><use xlink:href="#o" transform="matrix(6.123233995736766e-17,-1,1,6.123233995736766e-17,37,1335) translate(259.74074074074076 69.66666666666667)"/><path d="M695.56 1088.27c0-2.76 2.23-5 5-5h102c2.76 0 5 2.24 5 5v81.47c-18.67-14.4-30.34-14.4-37.34-14.4-11.2 0-26.13 14.4-37.33 14.4-7 0-18.68 0-37.34-14.4z" stroke="#000" stroke-width="2" fill="#99d5ca"/><path d="M701.78 1095.9c0-2.76 2.24-5 5-5h102c2.76 0 5 2.24 5 5v81.47c-18.67-14.4-30.34-14.4-37.34-14.4-11.2 0-26.13 14.4-37.33 14.4-7 0-18.66 0-37.32-14.4z" stroke="#000" stroke-width="2" fill="#99d5ca"/><path d="M708 1103.53c0-2.76 2.24-5 5-5h102c2.76 0 5 2.24 5 5V1185c-18.67-14.4-30.33-14.4-37.33-14.4-11.2 0-26.14 14.4-37.34 14.4-7 0-18.66 0-37.33-14.4z" stroke="#000" stroke-width="2" fill="#99d5ca"/><use xlink:href="#p" transform="matrix(1,0,0,1,713.0000000000001,1103.52873405085) translate(8.074999999999996 24.299999999999997)"/><use xlink:href="#q" transform="matrix(1,0,0,1,713.0000000000001,1103.52873405085) translate(24.025 45.9)"/><path d="M160 1130h79" stroke="#c92d39" stroke-width="2" fill="none"/><path d="M239 1130l-14.27 4.64v-9.28z" fill="#c92d39"/><path d="M240 1129.27v1.46l-16.27 5.28v-12zm-14.27 4l10.03-3.27-10.03-3.26z" fill="#c92d39"/><path d="M500 925c0-2.76 2.24-5 5-5h150c2.76 0 5 2.24 5 5v110c0 2.76-2.24 5-5 5H505c-2.76 0-5-2.24-5-5z" stroke="#333" stroke-opacity=".27" stroke-width="2" fill="#ef8d22"/><use xlink:href="#r" transform="matrix(1,0,0,1,505,925) translate(26.824074074074062 45.22222222222222)"/><use xlink:href="#s" transform="matrix(1,0,0,1,505,925) translate(41.11728395061728 74.55555555555556)"/><path d="M500 1225c0-2.76 2.24-5 5-5h150c2.76 0 5 2.24 5 5v110c0 2.76-2.24 5-5 5H505c-2.76 0-5-2.24-5-5z" stroke="#333" stroke-opacity=".27" stroke-width="2" fill="#ef8d22"/><use xlink:href="#r" transform="matrix(1,0,0,1,505,1225) translate(26.824074074074062 45.22222222222222)"/><use xlink:href="#t" transform="matrix(1,0,0,1,505,1225) translate(46.54938271604938 74.55555555555556)"/><path d="M400 1130h45c2.76 0 5-2.24 5-5V985c0-2.76 2.24-5 5-5h45" stroke="#c92d39" stroke-width="2" fill="none"/><path d="M500 980l-14.27 4.64v-9.28z" fill="#c92d39"/><path d="M500 978.95v2.1L484.73 986v-12zm-13.27 4.3l10.03-3.25-10.03-3.26z" fill="#c92d39"/><path d="M400 1130h45c2.76 0 5 2.24 5 5v140c0 2.76 2.24 5 5 5h45" stroke="#c92d39" stroke-width="2" fill="none"/><path d="M500 1280l-14.27 4.64v-9.28z" fill="#c92d39"/><path d="M500 1278.95v2.1l-15.27 4.96v-12zm-13.27 4.3l10.03-3.25-10.03-3.26z" fill="#c92d39"/><path d="M580 1220v-14.17c0-2.76 2.24-5 5-5h167.78c2.76 0 5-2.23 5-5v-14.16" stroke="#0c7cba" stroke-width="2" fill="none"/><path d="M762.4 1195.94h-9.26l4.64-14.27z" fill="#0c7cba"/><path d="M763.8 1196.94h-12.03l5.2-16.02 1.4-.67zm-9.28-2h6.52l-3.26-10.03z" fill="#0c7cba"/><path d="M580 1040v16.2c0 2.77 2.24 5 5 5h167.78c2.76 0 5 2.25 5 5v16.22" stroke="#0c7cba" stroke-width="2" fill="none"/><path d="M757.78 1082.42l-4.64-14.26h9.27z" fill="#0c7cba"/><path d="M758.55 1083.27H757l-5.23-16.1h12.02zm-4.03-14.1l3.26 10.02 3.26-10.04z" fill="#0c7cba"/><path d="M980 1075c0-2.76 2.24-5 5-5h134c2.76 0 5 2.24 5 5v97c-24-17-39-17-48-17-14.4 0-33.6 17-48 17-9 0-24 0-48-17z" stroke="#000" stroke-width="2" fill="#99d5ca"/><path d="M988 1084c0-2.76 2.24-5 5-5h134c2.76 0 5 2.24 5 5v97c-24-17-39-17-48-17-14.4 0-33.6 17-48 17-9 0-24 0-48-17z" stroke="#000" stroke-width="2" fill="#99d5ca"/><path d="M996 1093c0-2.76 2.24-5 5-5h134c2.76 0 5 2.24 5 5v97c-24-17-39-17-48-17-14.4 0-33.6 17-48 17-9 0-24 0-48-17z" stroke="#000" stroke-width="2" fill="#99d5ca"/><use xlink:href="#u" transform="matrix(1,0,0,1,1001,1093) translate(46.55 41.1)"/><path d="M660 980h205c2.76 0 5 2.24 5 5v140c0 2.76 2.24 5 5 5h105" stroke="#c92d39" stroke-width="2" fill="none"/><path d="M980 1130l-14.27 4.64v-9.28z" fill="#c92d39"/><path d="M980 1128.95v2.1l-15.27 4.96v-12zm-13.27 4.3l10.03-3.25-10.03-3.26z" fill="#c92d39"/><path d="M660 1280h205c2.76 0 5-2.24 5-5v-140c0-2.76 2.24-5 5-5h105" stroke="#c92d39" stroke-width="2" fill="none"/><path d="M980 1130l-14.27 4.64v-9.28z" fill="#c92d39"/><path d="M980 1128.95v2.1l-15.27 4.96v-12zm-13.27 4.3l10.03-3.25-10.03-3.26z" fill="#c92d39"/><path d="M540 1088.27c0-2.76 2.24-5 5-5h102c2.76 0 5 2.24 5 5v81.47c-18.67-14.4-30.33-14.4-37.33-14.4-11.2 0-26.14 14.4-37.34 14.4-7 0-18.66 0-37.33-14.4z" stroke="#000" stroke-width="2" fill="#99d5ca"/><path d="M546.22 1095.9c0-2.76 2.24-5 5-5h102c2.76 0 5 2.24 5 5v81.47c-18.66-14.4-30.33-14.4-37.33-14.4-11.2 0-26.14 14.4-37.34 14.4-7 0-18.67 0-37.34-14.4z" stroke="#000" stroke-width="2" fill="#99d5ca"/><path d="M552.44 1103.53c0-2.76 2.24-5 5-5h102c2.77 0 5 2.24 5 5V1185c-18.66-14.4-30.33-14.4-37.33-14.4-11.2 0-26.12 14.4-37.32 14.4-7 0-18.67 0-37.34-14.4z" stroke="#000" stroke-width="2" fill="#99d5ca"/><use xlink:href="#v" transform="matrix(1,0,0,1,557.4444444444445,1103.52873405085) translate(15.524999999999999 24.299999999999997)"/><use xlink:href="#w" transform="matrix(1,0,0,1,557.4444444444445,1103.52873405085) translate(22.525 45.9)"/><path d="M580 1220v-12.5c0-2.76-2.24-5-5-5h-70c-2.76 0-5-2.24-5-5v-58.37c0-2.76 2.24-5 5-5h35" stroke="#0c7cba" stroke-width="2" fill="none"/><path d="M540 1134.13l-14.27 4.64v-9.27z" fill="#0c7cba"/><path d="M540 1133.08v2.1l-15.27 4.97v-12.03zm-13.27 4.3l10.03-3.25-10.03-3.25z" fill="#0c7cba"/><path d="M580 1040v16.63c0 2.77-2.24 5-5 5h-70c-2.76 0-5 2.24-5 5v62.5c0 2.77 2.24 5 5 5h35" stroke="#0c7cba" stroke-width="2" fill="none"/><path d="M540 1134.13l-14.27 4.64v-9.27z" fill="#0c7cba"/><path d="M540 1133.08v2.1l-15.27 4.97v-12.03zm-13.27 4.3l10.03-3.25-10.03-3.25z" fill="#0c7cba"/><path d="M240 410c0-2.76 2.24-5 5-5h150c2.76 0 5 2.24 5 5v160c0 2.76-2.24 5-5 5H245c-2.76 0-5-2.24-5-5z" stroke="#333" stroke-opacity=".27" stroke-width="2" fill="#ef8d22"/><use xlink:href="#j" transform="matrix(1,0,0,1,245,410) translate(34.33333333333333 69.33333333333334)"/><use xlink:href="#k" transform="matrix(1,0,0,1,245,410) translate(28.370370370370352 101.33333333333334)"/><path d="M160 490h79" stroke="#c92d39" stroke-width="2" fill="none"/><path d="M239 490l-14.27 4.64v-9.28z" fill="#c92d39"/><path d="M240 489.27v1.46L223.73 496v-12zm-14.27 4l10.03-3.27-10.03-3.26z" fill="#c92d39"/><path d="M740 580c0-2.76 2.24-5 5-5h105.2c2.76 0 5 2.24 5 5v80c-19.2-14.17-31.2-14.17-38.4-14.17-11.52 0-26.88 14.17-38.4 14.17-7.2 0-19.2 0-38.4-14.17z" stroke="#000" stroke-width="2" fill="#99d5ca"/><path d="M746.4 587.5c0-2.76 2.24-5 5-5h105.2c2.76 0 5 2.24 5 5v80c-19.2-14.17-31.2-14.17-38.4-14.17-11.52 0-26.88 14.17-38.4 14.17-7.2 0-19.2 0-38.4-14.17z" stroke="#000" stroke-width="2" fill="#99d5ca"/><path d="M752.8 595c0-2.76 2.24-5 5-5H863c2.76 0 5 2.24 5 5v80c-19.2-14.17-31.2-14.17-38.4-14.17-11.52 0-26.88 14.17-38.4 14.17-7.2 0-19.2 0-38.4-14.17z" stroke="#000" stroke-width="2" fill="#99d5ca"/><use xlink:href="#p" transform="matrix(1,0,0,1,757.8,595) translate(10.074999999999996 23.299999999999997)"/><use xlink:href="#q" transform="matrix(1,0,0,1,757.8,595) translate(26.025 44.9)"/><path d="M500 385c0-2.76 2.24-5 5-5h150c2.76 0 5 2.24 5 5v110c0 2.76-2.24 5-5 5H505c-2.76 0-5-2.24-5-5z" stroke="#333" stroke-opacity=".27" stroke-width="2" fill="#ef8d22"/><use xlink:href="#r" transform="matrix(1,0,0,1,505,385) translate(26.824074074074062 30.555555555555557)"/><use xlink:href="#x" transform="matrix(1,0,0,1,505,385) translate(5.842592592592581 59.88888888888889)"/><use xlink:href="#y" transform="matrix(1,0,0,1,505,385) translate(76.39197530864197 59.88888888888889)"/><use xlink:href="#z" transform="matrix(1,0,0,1,505,385) translate(48.51851851851852 89.22222222222223)"/><path d="M500 725c0-2.76 2.24-5 5-5h150c2.76 0 5 2.24 5 5v110c0 2.76-2.24 5-5 5H505c-2.76 0-5-2.24-5-5z" stroke="#333" stroke-opacity=".27" stroke-width="2" fill="#ef8d22"/><use xlink:href="#r" transform="matrix(1,0,0,1,505,725) translate(26.824074074074062 30.555555555555557)"/><use xlink:href="#A" transform="matrix(1,0,0,1,505,725) translate(7.879629629629619 59.88888888888889)"/><use xlink:href="#B" transform="matrix(1,0,0,1,505,725) translate(85.21913580246914 59.88888888888889)"/><use xlink:href="#C" transform="matrix(1,0,0,1,505,725) translate(45.83641975308642 89.22222222222223)"/><path d="M580 720v-19.14c0-2.76 2.24-5 5-5h214c2.76 0 5-2.24 5-5v-19.13" stroke="#0c7cba" stroke-width="2" fill="none"/><path d="M808.64 686h-9.28l4.64-14.27z" fill="#0c7cba"/><path d="M810 687h-12l5.2-16 1.4-.66zm-9.26-2h6.52L804 674.95z" fill="#0c7cba"/><path d="M580 500v35c0 2.76 2.24 5 5 5h214c2.76 0 5 2.24 5 5v29.17" stroke="#0c7cba" stroke-width="2" fill="none"/><path d="M804 574.17l-4.64-14.27h9.28z" fill="#0c7cba"/><path d="M804.78 575h-1.56L798 558.9h12zm-4.04-14.1l3.26 10.03 3.26-10.03z" fill="#0c7cba"/><path d="M540 580c0-2.76 2.24-5 5-5h105.2c2.76 0 5 2.24 5 5v80c-19.2-14.17-31.2-14.17-38.4-14.17-11.52 0-26.88 14.17-38.4 14.17-7.2 0-19.2 0-38.4-14.17z" stroke="#000" stroke-width="2" fill="#99d5ca"/><path d="M546.4 587.5c0-2.76 2.24-5 5-5h105.2c2.76 0 5 2.24 5 5v80c-19.2-14.17-31.2-14.17-38.4-14.17-11.52 0-26.88 14.17-38.4 14.17-7.2 0-19.2 0-38.4-14.17z" stroke="#000" stroke-width="2" fill="#99d5ca"/><path d="M552.8 595c0-2.76 2.24-5 5-5H663c2.76 0 5 2.24 5 5v80c-19.2-14.17-31.2-14.17-38.4-14.17-11.52 0-26.88 14.17-38.4 14.17-7.2 0-19.2 0-38.4-14.17z" stroke="#000" stroke-width="2" fill="#99d5ca"/><use xlink:href="#v" transform="matrix(1,0,0,1,557.8,595) translate(17.525 23.299999999999997)"/><use xlink:href="#w" transform="matrix(1,0,0,1,557.8,595) translate(24.525 44.9)"/><path d="M580 500v32.5c0 2.76-2.24 5-5 5h-70c-2.76 0-5 2.24-5 5V620c0 2.76 2.24 5 5 5h35" stroke="#0c7cba" stroke-width="2" fill="none"/><path d="M540 625l-14.27 4.64v-9.28z" fill="#0c7cba"/><path d="M540 623.95v2.1L524.73 631v-12zm-13.27 4.3l10.03-3.25-10.03-3.26z" fill="#0c7cba"/><path d="M400 490h45c2.76 0 5 2.24 5 5v280c0 2.76 2.24 5 5 5h45" stroke="#c92d39" stroke-width="2" fill="none"/><path d="M500 780l-14.27 4.64v-9.28z" fill="#c92d39"/><path d="M500 778.95v2.1L484.73 786v-12zm-13.27 4.3l10.03-3.25-10.03-3.26z" fill="#c92d39"/><path d="M400 490h45c2.76 0 5-2.24 5-5v-40c0-2.76 2.24-5 5-5h45" stroke="#c92d39" stroke-width="2" fill="none"/><path d="M500 440l-14.27 4.64v-9.28z" fill="#c92d39"/><path d="M500 438.95v2.1L484.73 446v-12zm-13.27 4.3l10.03-3.25-10.03-3.26z" fill="#c92d39"/><path d="M660 780h1260" stroke="#c92d39" stroke-width="2" fill="none"/><path d="M1920 780l-14.27 4.64v-9.28z" fill="#c92d39"/><path d="M1921.44 779.42l-.05 1.03v.14l-16.67 5.4v-12zm-14.7 3.84l10.02-3.26-10.03-3.26z" fill="#c92d39"/><path d="M1949.65 724.4c1.3-2.42 4.6-4.4 7.35-4.4h107c8.84 0 16 26.86 16 60s-7.16 60-16 60h-107c-2.76 0-6.05-1.98-7.35-4.4l-27.3-51.2c-1.3-2.42-1.3-6.38 0-8.8z" stroke="#000" stroke-width="2" fill="#c1e4f7"/><use xlink:href="#D" transform="matrix(1,0,0,1,1925,725) translate(17.049999999999997 47.8)"/><use xlink:href="#E" transform="matrix(1,0,0,1,1925,725) translate(24.625 69.4)"/><use xlink:href="#F" transform="matrix(1,0,0,1,1925,725) translate(67.575 69.4)"/><use xlink:href="#G" transform="matrix(1,0,0,1,1925,725) translate(90.525 69.4)"/><path d="M1337.47 405c0-2.76 2.24-5 5-5h150c2.76 0 5 2.24 5 5v250c0 2.76-2.24 5-5 5h-150c-2.76 0-5-2.24-5-5z" stroke="#000" stroke-width="2" fill="#fff"/><use xlink:href="#H" transform="matrix(1,0,0,1,1342.4727593327998,405) translate(20.049999999999997 128.6)"/><use xlink:href="#I" transform="matrix(1,0,0,1,1342.4727593327998,405) translate(67 128.6)"/><path d="M580 720v-17.5c0-2.76-2.24-5-5-5h-70c-2.76 0-5-2.24-5-5V630c0-2.76 2.24-5 5-5h35" stroke="#0c7cba" stroke-width="2" fill="none"/><path d="M540 625l-14.27 4.64v-9.28z" fill="#0c7cba"/><path d="M540 623.95v2.1L524.73 631v-12zm-13.27 4.3l10.03-3.25-10.03-3.26z" fill="#0c7cba"/><path d="M1337.47 125c0-2.76 2.24-5 5-5h150c2.76 0 5 2.24 5 5v255c0 2.76-2.24 5-5 5h-150c-2.76 0-5-2.24-5-5z" stroke="#000" stroke-width="2" fill="#fff"/><use xlink:href="#J" transform="matrix(1,0,0,1,1342.4727593327998,125) translate(38.55 109.5)"/><use xlink:href="#K" transform="matrix(1,0,0,1,1342.4727593327998,125) translate(96.45 109.5)"/><use xlink:href="#L" transform="matrix(1,0,0,1,1342.4727593327998,125) translate(33.574999999999996 131.1)"/><use xlink:href="#M" transform="matrix(1,0,0,1,1342.4727593327998,125) translate(43.525 152.70000000000002)"/><path d="M1371.47 145c0-2.76 2.24-5 5-5h82c2.76 0 5 2.24 5 5v48.87c0 2.76-2.24 5-5 5h-82c-2.76 0-5-2.24-5-5z" stroke="#333" stroke-opacity=".27" stroke-width="2" fill="#c92d39"/><use xlink:href="#N" transform="matrix(1,0,0,1,1376.4727593327998,145) translate(17.525 28.1)"/><path d="M1371.47 316.32c0-2.76 2.24-5 5-5h82c2.76 0 5 2.24 5 5v48.87c0 2.75-2.24 5-5 5h-82c-2.76 0-5-2.25-5-5z" stroke="#333" stroke-opacity=".27" stroke-width="2" fill="#666"/><use xlink:href="#O" transform="matrix(1,0,0,1,1376.4727593327998,316.3207547169812) translate(16.025 28.1)"/><path d="M1463.47 169.43h223.27c2.76 0 5 2.24 5 5V414c0 2.76 2.23 5 5 5H1920" stroke="#c92d39" stroke-width="2" fill="none"/><path d="M1920 419l-14.27 4.64v-9.28z" fill="#c92d39"/><path d="M1921.44 418.42l-.05 1.03v.14l-16.67 5.4v-12zm-14.7 3.84l10.02-3.26-10.03-3.26z" fill="#c92d39"/><path d="M994.33 244.4c2.03-1.88 5.3-1.88 7.34 0l122.66 113.2c2.03 1.88 2.03 4.92 0 6.8l-122.66 113.2c-2.03 1.88-5.3 1.88-7.34 0L871.67 364.4c-2.03-1.88-2.03-4.92 0-6.8z" stroke="#000" stroke-width="2" fill="#7ab648"/><use xlink:href="#P" transform="matrix(1,0,0,1,873,246) translate(40.77777777777777 120.33333333333334)"/><use xlink:href="#Q" transform="matrix(1,0,0,1,873,246) translate(67.37037037037037 120.33333333333334)"/><use xlink:href="#R" transform="matrix(1,0,0,1,873,246) translate(88.03703703703704 120.33333333333334)"/><use xlink:href="#S" transform="matrix(1,0,0,1,873,246) translate(138.25925925925927 120.33333333333334)"/><path d="M660 440h35c2.76 0 5 2.24 5 5v71c0 2.76 2.24 5 5 5h288c2.76 0 5-2.24 5-5v-35" stroke="#c92d39" stroke-width="2" fill="none"/><path d="M1002.64 495.27h-9.28L998 481z" fill="#c92d39"/><path d="M1004 496.27h-12l5.6-17.28h.05l.72-.1zm-9.26-2h6.52L998 484.24z" fill="#c92d39"/><path d="M872.1 361h-35c-2.75 0-5-2.24-5-5V174.43c0-2.76 2.25-5 5-5h534.37M872.1 361h3" stroke="#c92d39" stroke-width="2" fill="none"/><path d="M1371.47 169.43l-14.26 4.64v-9.27z" fill="#c92d39"/><path d="M1371.47 168.38v2.1l-15.26 4.97v-12.03zm-13.26 4.3l10.04-3.25-10.03-3.25z" fill="#c92d39"/><path fill="#fff" d="M971.33 158.63h29.36v21.6h-29.37z"/><use xlink:href="#T" transform="matrix(1,0,0,1,971.3317438405754,158.63396226415094) translate(0 14.4)"/><path d="M1371.47 585c0-2.76 2.24-5 5-5h82c2.76 0 5 2.24 5 5v48.87c0 2.76-2.24 5-5 5h-82c-2.76 0-5-2.24-5-5z" stroke="#333" stroke-opacity=".27" stroke-width="2" fill="#c92d39"/><use xlink:href="#O" transform="matrix(1,0,0,1,1376.4727593327998,585) translate(16.025 28.1)"/><path d="M1371.47 425c0-2.76 2.24-5 5-5h82c2.76 0 5 2.24 5 5v48.87c0 2.76-2.24 5-5 5h-82c-2.76 0-5-2.24-5-5z" stroke="#333" stroke-opacity=".27" stroke-width="2" fill="#666"/><use xlink:href="#N" transform="matrix(1,0,0,1,1376.4727593327998,425) translate(17.525 28.1)"/><path d="M1128 361h99.74c2.76 0 5 2.24 5 5v159c0 2.76 2.23 5 5 5h99.73" stroke="#000" stroke-width="2" fill="none"/><path d="M1128 362h-2.34l.14-.34-.16-1.66h2.36zM1337.47 530l-14.26 4.64v-9.28z"/><path d="M1337.47 528.95v2.1L1322.2 536v-12zm-13.26 4.3l10.04-3.25-10.03-3.26z"/><path fill="#fff" d="M1221.26 434.7h22.96v21.6h-22.96z"/><g><use xlink:href="#U" transform="matrix(1,0,0,1,1221.2613796664,434.7) translate(0 14.4)"/></g><path d="M1949.65 363.4c1.3-2.42 4.6-4.4 7.35-4.4h107c8.84 0 16 26.86 16 60s-7.16 60-16 60h-107c-2.76 0-6.05-1.98-7.35-4.4l-27.3-51.2c-1.3-2.42-1.3-6.38 0-8.8z" stroke="#000" stroke-width="2" fill="#c1e4f7"/><g><use xlink:href="#V" transform="matrix(1,0,0,1,1925,364) translate(17.049999999999997 47.8)"/><use xlink:href="#W" transform="matrix(1,0,0,1,1925,364) translate(52.099999999999994 69.4)"/></g><path d="M1463.47 609.43h223.27c2.76 0 5-2.23 5-5V424c0-2.76 2.23-5 5-5H1920" stroke="#000" stroke-width="2" fill="none"/><path d="M1920 419l-14.27 4.64v-9.28z"/><path d="M1921.44 418.42l-.05 1.03v.14l-16.67 5.4v-12zm-14.7 3.84l10.02-3.26-10.03-3.26z"/><path d="M2032.28 158.7c9.42 0 16.96-8.74 16.96-19.42 0-10.67-7.54-19.28-16.96-19.28-9.42 0-16.96 8.6-16.96 19.28 0 10.68 7.54 19.4 16.96 19.4zM2043.1 168.87h-22.5c-.88 11.28-8.8 20.26-18.84 21.35v2.06h8.92c13.06 0 22.36 8.73 23.36 21.47h15.7v-17.1h2.77v17.1h10.3v-25.23c0-11.52-8.16-19.65-19.7-19.65zM1967.6 120c-9.3 0-16.97 8.6-16.97 19.28 0 10.68 7.67 19.4 16.96 19.4 9.4 0 17.08-8.72 17.08-19.4 0-10.67-7.67-19.28-17.1-19.28zM1965.83 213.75c1-12.74 10.3-21.47 23.37-21.47h8.92v-2.06c-9.93-1.1-17.84-10.07-18.85-21.35h-22.48c-11.57 0-19.6 8.13-19.6 19.65v25.23h10.67v-17.1h2.76v17.1h15.2z" fill="#acacac"/><path d="M2000 186.22c9.3 0 16.96-8.73 16.96-19.4 0-10.68-7.66-19.4-16.96-19.4-9.42 0-17.08 8.72-17.08 19.4 0 10.67 7.66 19.4 17.08 19.4zM2010.68 196.4h-21.48c-11.68 0-19.72 8.13-19.72 19.65v25.23h10.67v-17.1h2.77v17.1h34.54v-17.1h2.76v17.1h10.18v-25.23c0-11.52-8.04-19.65-19.72-19.65z" fill="#acacac"/><g><use xlink:href="#X" transform="matrix(1,0,0,1,1937.1929824561403,221.2765957446809) translate(63 15.4)"/></g><path d="M2000 241.28V358" stroke="#000" stroke-width="2" fill="none"/><path d="M2000 358l-4.64-14.27h9.28z"/><path d="M2000.73 359h-1.46l-5.28-16.27h12zm-4-14.27l3.27 10.03 3.26-10.03z"/><path fill="#fff" d="M1970.03 269.53H2030v21.6h-59.97z"/><g><use xlink:href="#Y" transform="matrix(1,0,0,1,1970.025,269.5320244609778) translate(0 14.4)"/></g><path d="M2000 479v241" stroke="#000" stroke-width="2" fill="none"/><path d="M2000 720l-4.64-14.27h9.28z"/><path d="M2001.05 720h-2.1l-4.96-15.27h12zm-4.3-13.27l3.25 10.03 3.26-10.03z"/><path fill="#fff" d="M1970.03 588.7H2030v21.6h-59.97z"/><g><use xlink:href="#Y" transform="matrix(1,0,0,1,1970.025,588.7) translate(0 14.4)"/></g><path d="M2080 780h35c2.76 0 5-2.24 5-5V424c0-2.76-2.24-5-5-5h-35" stroke="#000" stroke-width="2" fill="none"/><path d="M2080 781h-.04l.04-1-.03-1h.03zM2094.27 423.64L2080 419l14.27-4.64z"/><path d="M2095.27 425l-15.3-4.96.03-1.04-.04-1.04 15.3-4.97zm-12.03-6l10.03 3.26v-6.52z"/><path fill="#fff" d="M2083.03 588.7H2157v21.6h-73.97z"/><g><use xlink:href="#Z" transform="matrix(1,0,0,1,2083.025,588.7) translate(0 14.4)"/></g><defs><path fill="#999" d="M240-174c0 40-23 61-54 70L253 0h-59l-57-94H76V0H24v-248c93 4 217-23 216 74zM76-134c48-2 112 12 112-38 0-48-66-32-112-35v73" id="aa"/><path fill="#999" d="M169-182c-1-43-94-46-97-3 18 66 151 10 154 114 3 95-165 93-204 36-6-8-10-19-12-30l50-8c3 46 112 56 116 5-17-69-150-10-154-114-4-87 153-88 188-35 5 8 8 18 10 28" id="ab"/><path fill="#999" d="M186 0v-106H76V0H24v-248h52v99h110v-99h50V0h-50" id="ac"/><path fill="#999" d="M24 0v-248h52V0H24" id="ad"/><path fill="#999" d="M24-248c93 1 206-16 204 79-1 75-69 88-152 82V0H24v-248zm52 121c47 0 100 7 100-41 0-47-54-39-100-39v80" id="ae"/><g id="a"><use transform="matrix(0.09876543209876544,0,0,0.09876543209876544,0,0)" xlink:href="#aa"/><use transform="matrix(0.09876543209876544,0,0,0.09876543209876544,25.58024691358025,0)" xlink:href="#ab"/><use transform="matrix(0.09876543209876544,0,0,0.09876543209876544,49.283950617283956,0)" xlink:href="#ac"/><use transform="matrix(0.09876543209876544,0,0,0.09876543209876544,74.8641975308642,0)" xlink:href="#ad"/><use transform="matrix(0.09876543209876544,0,0,0.09876543209876544,84.74074074074075,0)" xlink:href="#ae"/></g><path fill="#999" d="M140-251c80 0 125 45 125 126S219 4 139 4C58 4 15-44 15-125s44-126 125-126zm-1 214c52 0 73-35 73-88 0-50-21-86-72-86-52 0-73 35-73 86s22 88 72 88" id="af"/><path fill="#999" d="M67-125c0 53 21 87 73 88 37 1 54-22 65-47l45 17C233-25 199 4 140 4 58 4 20-42 15-125 8-235 124-281 211-232c18 10 29 29 36 50l-46 12c-8-25-30-41-62-41-52 0-71 34-72 86" id="ag"/><path fill="#999" d="M24 0v-248h195v40H76v63h132v40H76v65h150V0H24" id="ah"/><g id="b"><use transform="matrix(0.09876543209876544,0,0,0.09876543209876544,0,0)" xlink:href="#ae"/><use transform="matrix(0.09876543209876544,0,0,0.09876543209876544,23.703703703703706,0)" xlink:href="#aa"/><use transform="matrix(0.09876543209876544,0,0,0.09876543209876544,49.283950617283956,0)" xlink:href="#af"/><use transform="matrix(0.09876543209876544,0,0,0.09876543209876544,76.93827160493828,0)" xlink:href="#ag"/><use transform="matrix(0.09876543209876544,0,0,0.09876543209876544,102.51851851851853,0)" xlink:href="#ah"/><use transform="matrix(0.09876543209876544,0,0,0.09876543209876544,126.22222222222223,0)" xlink:href="#ab"/><use transform="matrix(0.09876543209876544,0,0,0.09876543209876544,149.92592592592595,0)" xlink:href="#ab"/></g><path fill="#999" d="M199 0l-22-63H83L61 0H9l90-248h61L250 0h-51zm-33-102l-36-108c-10 38-24 72-36 108h72" id="ai"/><path fill="#999" d="M24-248c120-7 223 5 221 122C244-46 201 0 124 0H24v-248zM76-40c74 7 117-18 117-86 0-67-45-88-117-82v168" id="aj"/><path fill="#999" d="M230 0l2-204L168 0h-37L68-204 70 0H24v-248h70l56 185 57-185h69V0h-46" id="ak"/><g id="c"><use transform="matrix(0.09876543209876544,0,0,0.09876543209876544,0,0)" xlink:href="#aa"/><use transform="matrix(0.09876543209876544,0,0,0.09876543209876544,25.58024691358025,0)" xlink:href="#af"/><use transform="matrix(0.09876543209876544,0,0,0.09876543209876544,53.23456790123457,0)" xlink:href="#ai"/><use transform="matrix(0.09876543209876544,0,0,0.09876543209876544,78.81481481481482,0)" xlink:href="#aj"/><use transform="matrix(0.09876543209876544,0,0,0.09876543209876544,104.39506172839508,0)" xlink:href="#ak"/><use transform="matrix(0.09876543209876544,0,0,0.09876543209876544,133.92592592592595,0)" xlink:href="#ai"/><use transform="matrix(0.09876543209876544,0,0,0.09876543209876544,159.5061728395062,0)" xlink:href="#ae"/></g><path fill="#999" d="M240 0l2-218c-23 76-54 145-80 218h-23L58-218 59 0H30v-248h44l77 211c21-75 51-140 76-211h43V0h-30" id="al"/><path fill="#999" d="M24-231v-30h32v30H24zM24 0v-190h32V0H24" id="am"/><path fill="#999" d="M96-169c-40 0-48 33-48 73s9 75 48 75c24 0 41-14 43-38l32 2c-6 37-31 61-74 61-59 0-76-41-82-99-10-93 101-131 147-64 4 7 5 14 7 22l-32 3c-4-21-16-35-41-35" id="an"/><path fill="#999" d="M106-169C34-169 62-67 57 0H25v-261h32l-1 103c12-21 28-36 61-36 89 0 53 116 60 194h-32v-121c2-32-8-49-39-48" id="ao"/><path fill="#999" d="M141-36C126-15 110 5 73 4 37 3 15-17 15-53c-1-64 63-63 125-63 3-35-9-54-41-54-24 1-41 7-42 31l-33-3c5-37 33-52 76-52 45 0 72 20 72 64v82c-1 20 7 32 28 27v20c-31 9-61-2-59-35zM48-53c0 20 12 33 32 33 41-3 63-29 60-74-43 2-92-5-92 41" id="ap"/><path fill="#999" d="M100-194c63 0 86 42 84 106H49c0 40 14 67 53 68 26 1 43-12 49-29l28 8c-11 28-37 45-77 45C44 4 14-33 15-96c1-61 26-98 85-98zm52 81c6-60-76-77-97-28-3 7-6 17-6 28h103" id="aq"/><path fill="#999" d="M24 0v-261h32V0H24" id="ar"/><g id="d"><use transform="matrix(0.06172839506172778,0,0,0.06172839506172778,0,0)" xlink:href="#al"/><use transform="matrix(0.06172839506172778,0,0,0.06172839506172778,18.456790123456607,0)" xlink:href="#am"/><use transform="matrix(0.06172839506172778,0,0,0.06172839506172778,23.3333333333331,0)" xlink:href="#an"/><use transform="matrix(0.06172839506172778,0,0,0.06172839506172778,34.4444444444441,0)" xlink:href="#ao"/><use transform="matrix(0.06172839506172778,0,0,0.06172839506172778,46.79012345678966,0)" xlink:href="#ap"/><use transform="matrix(0.06172839506172778,0,0,0.06172839506172778,59.135802469135214,0)" xlink:href="#aq"/><use transform="matrix(0.06172839506172778,0,0,0.06172839506172778,71.48148148148077,0)" xlink:href="#ar"/></g><path fill="#999" d="M185-189c-5-48-123-54-124 2 14 75 158 14 163 119 3 78-121 87-175 55-17-10-28-26-33-46l33-7c5 56 141 63 141-1 0-78-155-14-162-118-5-82 145-84 179-34 5 7 8 16 11 25" id="as"/><path fill="#999" d="M84 4C-5 8 30-112 23-190h32v120c0 31 7 50 39 49 72-2 45-101 50-169h31l1 190h-30c-1-10 1-25-2-33-11 22-28 36-60 37" id="at"/><path fill="#999" d="M210-169c-67 3-38 105-44 169h-31v-121c0-29-5-50-35-48C34-165 62-65 56 0H25l-1-190h30c1 10-1 24 2 32 10-44 99-50 107 0 11-21 27-35 58-36 85-2 47 119 55 194h-31v-121c0-29-5-49-35-48" id="au"/><g id="e"><use transform="matrix(0.06172839506172778,0,0,0.06172839506172778,0,0)" xlink:href="#as"/><use transform="matrix(0.06172839506172778,0,0,0.06172839506172778,14.814814814814667,0)" xlink:href="#at"/><use transform="matrix(0.06172839506172778,0,0,0.06172839506172778,27.160493827160224,0)" xlink:href="#au"/></g><path fill="#999" d="M32 76v-337h29V76H32" id="av"/><use transform="matrix(0.06172839506172778,0,0,0.06172839506172778,0,0)" xlink:href="#av" id="f"/><path fill="#999" d="M190 0L58-211 59 0H30v-248h39L202-35l-2-213h31V0h-41" id="aw"/><path fill="#999" d="M100-194c62-1 85 37 85 99 1 63-27 99-86 99S16-35 15-95c0-66 28-99 85-99zM99-20c44 1 53-31 53-75 0-43-8-75-51-75s-53 32-53 75 10 74 51 75" id="ax"/><path fill="#999" d="M108 0H70L1-190h34L89-25l56-165h34" id="ay"/><path fill="#999" d="M115-194c53 0 69 39 70 98 0 66-23 100-70 100C84 3 66-7 56-30L54 0H23l1-261h32v101c10-23 28-34 59-34zm-8 174c40 0 45-34 45-75 0-40-5-75-45-74-42 0-51 32-51 76 0 43 10 73 51 73" id="az"/><path fill="#999" d="M114-163C36-179 61-72 57 0H25l-1-190h30c1 12-1 29 2 39 6-27 23-49 58-41v29" id="aA"/><g id="g"><use transform="matrix(0.06172839506172778,0,0,0.06172839506172778,0,0)" xlink:href="#aw"/><use transform="matrix(0.06172839506172778,0,0,0.06172839506172778,15.987654320987495,0)" xlink:href="#ax"/><use transform="matrix(0.06172839506172778,0,0,0.06172839506172778,28.33333333333305,0)" xlink:href="#ay"/><use transform="matrix(0.06172839506172778,0,0,0.06172839506172778,39.44444444444405,0)" xlink:href="#aq"/><use transform="matrix(0.06172839506172778,0,0,0.06172839506172778,51.79012345678961,0)" xlink:href="#au"/><use transform="matrix(0.06172839506172778,0,0,0.06172839506172778,70.24691358024621,0)" xlink:href="#az"/><use transform="matrix(0.06172839506172778,0,0,0.06172839506172778,82.59259259259177,0)" xlink:href="#aq"/><use transform="matrix(0.06172839506172778,0,0,0.06172839506172778,94.93827160493733,0)" xlink:href="#aA"/></g><path fill="#999" d="M101-251c82-7 93 87 43 132L82-64C71-53 59-42 53-27h129V0H18c2-99 128-94 128-182 0-28-16-43-45-43s-46 15-49 41l-32-3c6-41 34-60 81-64" id="aB"/><path fill="#999" d="M54-142c48-35 137-8 131 61C196 18 31 33 14-55l32-4c7 23 22 37 52 37 35-1 51-22 54-58 4-55-73-65-99-34H22l8-134h141v27H59" id="aC"/><path fill="#999" d="M68-38c1 34 0 65-14 84H32c9-13 17-26 17-46H33v-38h35" id="aD"/><g id="h"><use transform="matrix(0.06172839506172778,0,0,0.06172839506172778,0,0)" xlink:href="#aB"/><use transform="matrix(0.06172839506172778,0,0,0.06172839506172778,12.345679012345556,0)" xlink:href="#aC"/><use transform="matrix(0.06172839506172778,0,0,0.06172839506172778,24.691358024691112,0)" xlink:href="#aD"/></g><path fill="#999" d="M101-251c68 0 85 55 85 127S166 4 100 4C33 4 14-52 14-124c0-73 17-127 87-127zm-1 229c47 0 54-49 54-102s-4-102-53-102c-51 0-55 48-55 102 0 53 5 102 54 102" id="aE"/><path fill="#999" d="M27 0v-27h64v-190l-56 39v-29l58-41h29v221h61V0H27" id="aF"/><path fill="#999" d="M110-160c48 1 74 30 74 79 0 53-28 85-80 85-65 0-83-55-86-122-5-90 50-162 133-122 14 7 22 21 27 39l-31 6c-5-40-67-38-82-6-9 19-15 44-15 74 11-20 30-34 60-33zm-7 138c34 0 49-23 49-58s-16-56-50-56c-29 0-50 16-49 49 1 36 15 65 50 65" id="aG"/><g id="i"><use transform="matrix(0.06172839506172778,0,0,0.06172839506172778,0,0)" xlink:href="#aB"/><use transform="matrix(0.06172839506172778,0,0,0.06172839506172778,12.345679012345556,0)" xlink:href="#aE"/><use transform="matrix(0.06172839506172778,0,0,0.06172839506172778,24.691358024691112,0)" xlink:href="#aF"/><use transform="matrix(0.06172839506172778,0,0,0.06172839506172778,37.03703703703667,0)" xlink:href="#aG"/></g><path fill="#fff" d="M210-169c-67 3-38 105-44 169h-31v-121c0-29-5-50-35-48C34-165 62-65 56 0H25l-1-190h30c1 10-1 24 2 32 10-44 99-50 107 0 11-21 27-35 58-36 85-2 47 119 55 194h-31v-121c0-29-5-49-35-48" id="aH"/><path fill="#fff" d="M141-36C126-15 110 5 73 4 37 3 15-17 15-53c-1-64 63-63 125-63 3-35-9-54-41-54-24 1-41 7-42 31l-33-3c5-37 33-52 76-52 45 0 72 20 72 64v82c-1 20 7 32 28 27v20c-31 9-61-2-59-35zM48-53c0 20 12 33 32 33 41-3 63-29 60-74-43 2-92-5-92 41" id="aI"/><path fill="#fff" d="M135-143c-3-34-86-38-87 0 15 53 115 12 119 90S17 21 10-45l28-5c4 36 97 45 98 0-10-56-113-15-118-90-4-57 82-63 122-42 12 7 21 19 24 35" id="aJ"/><path fill="#fff" d="M59-47c-2 24 18 29 38 22v24C64 9 27 4 27-40v-127H5v-23h24l9-43h21v43h35v23H59v120" id="aK"/><path fill="#fff" d="M100-194c63 0 86 42 84 106H49c0 40 14 67 53 68 26 1 43-12 49-29l28 8c-11 28-37 45-77 45C44 4 14-33 15-96c1-61 26-98 85-98zm52 81c6-60-76-77-97-28-3 7-6 17-6 28h103" id="aL"/><path fill="#fff" d="M114-163C36-179 61-72 57 0H25l-1-190h30c1 12-1 29 2 39 6-27 23-49 58-41v29" id="aM"/><g id="j"><use transform="matrix(0.07407407407407408,0,0,0.07407407407407408,0,0)" xlink:href="#aH"/><use transform="matrix(0.07407407407407408,0,0,0.07407407407407408,22.148148148148152,0)" xlink:href="#aI"/><use transform="matrix(0.07407407407407408,0,0,0.07407407407407408,36.96296296296297,0)" xlink:href="#aJ"/><use transform="matrix(0.07407407407407408,0,0,0.07407407407407408,50.296296296296305,0)" xlink:href="#aK"/><use transform="matrix(0.07407407407407408,0,0,0.07407407407407408,57.70370370370371,0)" xlink:href="#aL"/><use transform="matrix(0.07407407407407408,0,0,0.07407407407407408,72.51851851851853,0)" xlink:href="#aM"/></g><path fill="#fff" d="M115-194c55 1 70 41 70 98S169 2 115 4C84 4 66-9 55-30l1 105H24l-1-265h31l2 30c10-21 28-34 59-34zm-8 174c40 0 45-34 45-75s-6-73-45-74c-42 0-51 32-51 76 0 43 10 73 51 73" id="aN"/><path fill="#fff" d="M100-194c62-1 85 37 85 99 1 63-27 99-86 99S16-35 15-95c0-66 28-99 85-99zM99-20c44 1 53-31 53-75 0-43-8-75-51-75s-53 32-53 75 10 74 51 75" id="aO"/><path fill="#fff" d="M96-169c-40 0-48 33-48 73s9 75 48 75c24 0 41-14 43-38l32 2c-6 37-31 61-74 61-59 0-76-41-82-99-10-93 101-131 147-64 4 7 5 14 7 22l-32 3c-4-21-16-35-41-35" id="aP"/><g id="k"><use transform="matrix(0.07407407407407408,0,0,0.07407407407407408,0,0)" xlink:href="#aN"/><use transform="matrix(0.07407407407407408,0,0,0.07407407407407408,14.814814814814817,0)" xlink:href="#aM"/><use transform="matrix(0.07407407407407408,0,0,0.07407407407407408,23.629629629629633,0)" xlink:href="#aO"/><use transform="matrix(0.07407407407407408,0,0,0.07407407407407408,38.44444444444445,0)" xlink:href="#aP"/><use transform="matrix(0.07407407407407408,0,0,0.07407407407407408,51.777777777777786,0)" xlink:href="#aL"/><use transform="matrix(0.07407407407407408,0,0,0.07407407407407408,66.59259259259261,0)" xlink:href="#aJ"/><use transform="matrix(0.07407407407407408,0,0,0.07407407407407408,79.92592592592595,0)" xlink:href="#aJ"/></g><path d="M114-163C36-179 61-72 57 0H25l-1-190h30c1 12-1 29 2 39 6-27 23-49 58-41v29" id="aQ"/><path d="M135-143c-3-34-86-38-87 0 15 53 115 12 119 90S17 21 10-45l28-5c4 36 97 45 98 0-10-56-113-15-118-90-4-57 82-63 122-42 12 7 21 19 24 35" id="aR"/><path d="M106-169C34-169 62-67 57 0H25v-261h32l-1 103c12-21 28-36 61-36 89 0 53 116 60 194h-32v-121c2-32-8-49-39-48" id="aS"/><path d="M24-231v-30h32v30H24zM24 0v-190h32V0H24" id="aT"/><path d="M115-194c55 1 70 41 70 98S169 2 115 4C84 4 66-9 55-30l1 105H24l-1-265h31l2 30c10-21 28-34 59-34zm-8 174c40 0 45-34 45-75s-6-73-45-74c-42 0-51 32-51 76 0 43 10 73 51 73" id="aU"/><g id="l"><use transform="matrix(0.14814814814814817,0,0,0.14814814814814817,0,0)" xlink:href="#aQ"/><use transform="matrix(0.14814814814814817,0,0,0.14814814814814817,17.629629629629633,0)" xlink:href="#aR"/><use transform="matrix(0.14814814814814817,0,0,0.14814814814814817,44.296296296296305,0)" xlink:href="#aS"/><use transform="matrix(0.14814814814814817,0,0,0.14814814814814817,73.92592592592594,0)" xlink:href="#aT"/><use transform="matrix(0.14814814814814817,0,0,0.14814814814814817,85.62962962962965,0)" xlink:href="#aU"/></g><path d="M84 4C-5 8 30-112 23-190h32v120c0 31 7 50 39 49 72-2 45-101 50-169h31l1 190h-30c-1-10 1-25-2-33-11 22-28 36-60 37" id="aV"/><path d="M117-194c89-4 53 116 60 194h-32v-121c0-31-8-49-39-48C34-167 62-67 57 0H25l-1-190h30c1 10-1 24 2 32 11-22 29-35 61-36" id="aW"/><g id="m"><use transform="matrix(0.14814814814814817,0,0,0.14814814814814817,0,0)" xlink:href="#aQ"/><use transform="matrix(0.14814814814814817,0,0,0.14814814814814817,17.629629629629633,0)" xlink:href="#aV"/><use transform="matrix(0.14814814814814817,0,0,0.14814814814814817,47.25925925925927,0)" xlink:href="#aW"/></g><path d="M85-194c31 0 48 13 60 33l-1-100h32l1 261h-30c-2-10 0-23-3-31C134-8 116 4 85 4 32 4 16-35 15-94c0-66 23-100 70-100zm9 24c-40 0-46 34-46 75 0 40 6 74 45 74 42 0 51-32 51-76 0-42-9-74-50-73" id="aX"/><path d="M100-194c63 0 86 42 84 106H49c0 40 14 67 53 68 26 1 43-12 49-29l28 8c-11 28-37 45-77 45C44 4 14-33 15-96c1-61 26-98 85-98zm52 81c6-60-76-77-97-28-3 7-6 17-6 28h103" id="aY"/><path d="M108 0H70L1-190h34L89-25l56-165h34" id="aZ"/><g id="n"><use transform="matrix(0.14814814814814817,0,0,0.14814814814814817,0,0)" xlink:href="#aX"/><use transform="matrix(0.14814814814814817,0,0,0.14814814814814817,29.629629629629633,0)" xlink:href="#aY"/><use transform="matrix(0.14814814814814817,0,0,0.14814814814814817,59.25925925925927,0)" xlink:href="#aZ"/></g><path d="M115-194c53 0 69 39 70 98 0 66-23 100-70 100C84 3 66-7 56-30L54 0H23l1-261h32v101c10-23 28-34 59-34zm-8 174c40 0 45-34 45-75 0-40-5-75-45-74-42 0-51 32-51 76 0 43 10 73 51 73" id="ba"/><path d="M24 0v-261h32V0H24" id="bb"/><g id="o"><use transform="matrix(0.14814814814814817,0,0,0.14814814814814817,0,0)" xlink:href="#ba"/><use transform="matrix(0.14814814814814817,0,0,0.14814814814814817,29.629629629629633,0)" xlink:href="#aV"/><use transform="matrix(0.14814814814814817,0,0,0.14814814814814817,59.25925925925927,0)" xlink:href="#aT"/><use transform="matrix(0.14814814814814817,0,0,0.14814814814814817,70.96296296296298,0)" xlink:href="#bb"/><use transform="matrix(0.14814814814814817,0,0,0.14814814814814817,82.66666666666667,0)" xlink:href="#aX"/></g><path d="M141-36C126-15 110 5 73 4 37 3 15-17 15-53c-1-64 63-63 125-63 3-35-9-54-41-54-24 1-41 7-42 31l-33-3c5-37 33-52 76-52 45 0 72 20 72 64v82c-1 20 7 32 28 27v20c-31 9-61-2-59-35zM48-53c0 20 12 33 32 33 41-3 63-29 60-74-43 2-92-5-92 41" id="bc"/><path d="M96-169c-40 0-48 33-48 73s9 75 48 75c24 0 41-14 43-38l32 2c-6 37-31 61-74 61-59 0-76-41-82-99-10-93 101-131 147-64 4 7 5 14 7 22l-32 3c-4-21-16-35-41-35" id="bd"/><path d="M59-47c-2 24 18 29 38 22v24C64 9 27 4 27-40v-127H5v-23h24l9-43h21v43h35v23H59v120" id="be"/><path d="M100-194c62-1 85 37 85 99 1 63-27 99-86 99S16-35 15-95c0-66 28-99 85-99zM99-20c44 1 53-31 53-75 0-43-8-75-51-75s-53 32-53 75 10 74 51 75" id="bf"/><g id="p"><use transform="matrix(0.05,0,0,0.05,0,0)" xlink:href="#bc"/><use transform="matrix(0.05,0,0,0.05,10,0)" xlink:href="#aU"/><use transform="matrix(0.05,0,0,0.05,20,0)" xlink:href="#aU"/><use transform="matrix(0.05,0,0,0.05,30,0)" xlink:href="#bb"/><use transform="matrix(0.05,0,0,0.05,33.95,0)" xlink:href="#aT"/><use transform="matrix(0.05,0,0,0.05,37.900000000000006,0)" xlink:href="#bd"/><use transform="matrix(0.05,0,0,0.05,46.900000000000006,0)" xlink:href="#bc"/><use transform="matrix(0.05,0,0,0.05,56.900000000000006,0)" xlink:href="#be"/><use transform="matrix(0.05,0,0,0.05,61.900000000000006,0)" xlink:href="#aT"/><use transform="matrix(0.05,0,0,0.05,65.85000000000001,0)" xlink:href="#bf"/><use transform="matrix(0.05,0,0,0.05,75.85000000000001,0)" xlink:href="#aW"/></g><g id="q"><use transform="matrix(0.05,0,0,0.05,0,0)" xlink:href="#aR"/><use transform="matrix(0.05,0,0,0.05,9,0)" xlink:href="#bf"/><use transform="matrix(0.05,0,0,0.05,19,0)" xlink:href="#aV"/><use transform="matrix(0.05,0,0,0.05,29,0)" xlink:href="#aQ"/><use transform="matrix(0.05,0,0,0.05,34.95,0)" xlink:href="#bd"/><use transform="matrix(0.05,0,0,0.05,43.95,0)" xlink:href="#aY"/></g><path fill="#fff" d="M206 0h-36l-40-164L89 0H53L-1-190h32L70-26l43-164h34l41 164 42-164h31" id="bg"/><path fill="#fff" d="M115-194c53 0 69 39 70 98 0 66-23 100-70 100C84 3 66-7 56-30L54 0H23l1-261h32v101c10-23 28-34 59-34zm-8 174c40 0 45-34 45-75 0-40-5-75-45-74-42 0-51 32-51 76 0 43 10 73 51 73" id="bh"/><path fill="#fff" d="M143 0L79-87 56-68V0H24v-261h32v163l83-92h37l-77 82L181 0h-38" id="bi"/><g id="r"><use transform="matrix(0.06790123456790124,0,0,0.06790123456790124,0,0)" xlink:href="#bg"/><use transform="matrix(0.06790123456790124,0,0,0.06790123456790124,17.58641975308642,0)" xlink:href="#aL"/><use transform="matrix(0.06790123456790124,0,0,0.06790123456790124,31.16666666666667,0)" xlink:href="#bh"/><use transform="matrix(0.06790123456790124,0,0,0.06790123456790124,44.74691358024692,0)" xlink:href="#aN"/><use transform="matrix(0.06790123456790124,0,0,0.06790123456790124,58.32716049382716,0)" xlink:href="#aI"/><use transform="matrix(0.06790123456790124,0,0,0.06790123456790124,71.90740740740742,0)" xlink:href="#aP"/><use transform="matrix(0.06790123456790124,0,0,0.06790123456790124,84.12962962962965,0)" xlink:href="#bi"/></g><path fill="#fff" d="M108 0H70L1-190h34L89-25l56-165h34" id="bj"/><g id="s"><use transform="matrix(0.06790123456790124,0,0,0.06790123456790124,0,0)" xlink:href="#aJ"/><use transform="matrix(0.06790123456790124,0,0,0.06790123456790124,12.222222222222223,0)" xlink:href="#aL"/><use transform="matrix(0.06790123456790124,0,0,0.06790123456790124,25.802469135802472,0)" xlink:href="#aM"/><use transform="matrix(0.06790123456790124,0,0,0.06790123456790124,33.88271604938272,0)" xlink:href="#bj"/><use transform="matrix(0.06790123456790124,0,0,0.06790123456790124,46.104938271604944,0)" xlink:href="#aL"/><use transform="matrix(0.06790123456790124,0,0,0.06790123456790124,59.6851851851852,0)" xlink:href="#aM"/></g><path fill="#fff" d="M24 0v-261h32V0H24" id="bk"/><path fill="#fff" d="M24-231v-30h32v30H24zM24 0v-190h32V0H24" id="bl"/><path fill="#fff" d="M117-194c89-4 53 116 60 194h-32v-121c0-31-8-49-39-48C34-167 62-67 57 0H25l-1-190h30c1 10-1 24 2 32 11-22 29-35 61-36" id="bm"/><g id="t"><use transform="matrix(0.06790123456790124,0,0,0.06790123456790124,0,0)" xlink:href="#aP"/><use transform="matrix(0.06790123456790124,0,0,0.06790123456790124,12.222222222222223,0)" xlink:href="#bk"/><use transform="matrix(0.06790123456790124,0,0,0.06790123456790124,17.58641975308642,0)" xlink:href="#bl"/><use transform="matrix(0.06790123456790124,0,0,0.06790123456790124,22.95061728395062,0)" xlink:href="#aL"/><use transform="matrix(0.06790123456790124,0,0,0.06790123456790124,36.53086419753087,0)" xlink:href="#bm"/><use transform="matrix(0.06790123456790124,0,0,0.06790123456790124,50.111111111111114,0)" xlink:href="#aK"/></g><path d="M30-248c118-7 216 8 213 122C240-48 200 0 122 0H30v-248zM63-27c89 8 146-16 146-99s-60-101-146-95v194" id="bn"/><path d="M33 0v-248h34V0H33" id="bo"/><path d="M185-189c-5-48-123-54-124 2 14 75 158 14 163 119 3 78-121 87-175 55-17-10-28-26-33-46l33-7c5 56 141 63 141-1 0-78-155-14-162-118-5-82 145-84 179-34 5 7 8 16 11 25" id="bp"/><path d="M127-220V0H93v-220H8v-28h204v28h-85" id="bq"/><g id="u"><use transform="matrix(0.05,0,0,0.05,0,0)" xlink:href="#bn"/><use transform="matrix(0.05,0,0,0.05,12.950000000000001,0)" xlink:href="#bo"/><use transform="matrix(0.05,0,0,0.05,17.950000000000003,0)" xlink:href="#bp"/><use transform="matrix(0.05,0,0,0.05,29.950000000000003,0)" xlink:href="#bq"/></g><path d="M206 0h-36l-40-164L89 0H53L-1-190h32L70-26l43-164h34l41 164 42-164h31" id="br"/><path d="M143 0L79-87 56-68V0H24v-261h32v163l83-92h37l-77 82L181 0h-38" id="bs"/><g id="v"><use transform="matrix(0.05,0,0,0.05,0,0)" xlink:href="#br"/><use transform="matrix(0.05,0,0,0.05,12.950000000000001,0)" xlink:href="#aY"/><use transform="matrix(0.05,0,0,0.05,22.950000000000003,0)" xlink:href="#ba"/><use transform="matrix(0.05,0,0,0.05,32.95,0)" xlink:href="#aU"/><use transform="matrix(0.05,0,0,0.05,42.95,0)" xlink:href="#bc"/><use transform="matrix(0.05,0,0,0.05,52.95,0)" xlink:href="#bd"/><use transform="matrix(0.05,0,0,0.05,61.95,0)" xlink:href="#bs"/></g><path d="M101-234c-31-9-42 10-38 44h38v23H63V0H32v-167H5v-23h27c-7-52 17-82 69-68v24" id="bt"/><path d="M177-190C167-65 218 103 67 71c-23-6-38-20-44-43l32-5c15 47 100 32 89-28v-30C133-14 115 1 83 1 29 1 15-40 15-95c0-56 16-97 71-98 29-1 48 16 59 35 1-10 0-23 2-32h30zM94-22c36 0 50-32 50-73 0-42-14-75-50-75-39 0-46 34-46 75s6 73 46 73" id="bu"/><g id="w"><use transform="matrix(0.05,0,0,0.05,0,0)" xlink:href="#bd"/><use transform="matrix(0.05,0,0,0.05,9,0)" xlink:href="#bf"/><use transform="matrix(0.05,0,0,0.05,19,0)" xlink:href="#aW"/><use transform="matrix(0.05,0,0,0.05,29,0)" xlink:href="#bt"/><use transform="matrix(0.05,0,0,0.05,34,0)" xlink:href="#aT"/><use transform="matrix(0.05,0,0,0.05,37.95,0)" xlink:href="#bu"/><use transform="matrix(0.05,0,0,0.05,47.95,0)" xlink:href="#aR"/></g><path fill="#fff" d="M106-169C34-169 62-67 57 0H25v-261h32l-1 103c12-21 28-36 61-36 89 0 53 116 60 194h-32v-121c2-32-8-49-39-48" id="bv"/><g id="x"><use transform="matrix(0.06790123456790124,0,0,0.06790123456790124,0,0)" xlink:href="#bg"/><use transform="matrix(0.06790123456790124,0,0,0.06790123456790124,17.58641975308642,0)" xlink:href="#aI"/><use transform="matrix(0.06790123456790124,0,0,0.06790123456790124,31.16666666666667,0)" xlink:href="#aK"/><use transform="matrix(0.06790123456790124,0,0,0.06790123456790124,37.9567901234568,0)" xlink:href="#aP"/><use transform="matrix(0.06790123456790124,0,0,0.06790123456790124,50.17901234567902,0)" xlink:href="#bv"/></g><g id="y"><use transform="matrix(0.06790123456790124,0,0,0.06790123456790124,0,0)" xlink:href="#aJ"/><use transform="matrix(0.06790123456790124,0,0,0.06790123456790124,12.222222222222223,0)" xlink:href="#aL"/><use transform="matrix(0.06790123456790124,0,0,0.06790123456790124,25.802469135802472,0)" xlink:href="#aM"/><use transform="matrix(0.06790123456790124,0,0,0.06790123456790124,33.88271604938272,0)" xlink:href="#bj"/><use transform="matrix(0.06790123456790124,0,0,0.06790123456790124,46.104938271604944,0)" xlink:href="#aL"/><use transform="matrix(0.06790123456790124,0,0,0.06790123456790124,59.6851851851852,0)" xlink:href="#aM"/></g><path fill="#fff" d="M85-194c31 0 48 13 60 33l-1-100h32l1 261h-30c-2-10 0-23-3-31C134-8 116 4 85 4 32 4 16-35 15-94c0-66 23-100 70-100zm9 24c-40 0-46 34-46 75 0 40 6 74 45 74 42 0 51-32 51-76 0-42-9-74-50-73" id="bw"/><g id="z"><use transform="matrix(0.06790123456790124,0,0,0.06790123456790124,0,0)" xlink:href="#aP"/><use transform="matrix(0.06790123456790124,0,0,0.06790123456790124,12.222222222222223,0)" xlink:href="#aO"/><use transform="matrix(0.06790123456790124,0,0,0.06790123456790124,25.802469135802472,0)" xlink:href="#bw"/><use transform="matrix(0.06790123456790124,0,0,0.06790123456790124,39.38271604938272,0)" xlink:href="#aL"/></g><g id="A"><use transform="matrix(0.06790123456790124,0,0,0.06790123456790124,0,0)" xlink:href="#bg"/><use transform="matrix(0.06790123456790124,0,0,0.06790123456790124,17.58641975308642,0)" xlink:href="#aI"/><use transform="matrix(0.06790123456790124,0,0,0.06790123456790124,31.16666666666667,0)" xlink:href="#aK"/><use transform="matrix(0.06790123456790124,0,0,0.06790123456790124,37.9567901234568,0)" xlink:href="#aP"/><use transform="matrix(0.06790123456790124,0,0,0.06790123456790124,50.17901234567902,0)" xlink:href="#bv"/></g><g id="B"><use transform="matrix(0.06790123456790124,0,0,0.06790123456790124,0,0)" xlink:href="#aP"/><use transform="matrix(0.06790123456790124,0,0,0.06790123456790124,12.222222222222223,0)" xlink:href="#bk"/><use transform="matrix(0.06790123456790124,0,0,0.06790123456790124,17.58641975308642,0)" xlink:href="#bl"/><use transform="matrix(0.06790123456790124,0,0,0.06790123456790124,22.95061728395062,0)" xlink:href="#aL"/><use transform="matrix(0.06790123456790124,0,0,0.06790123456790124,36.53086419753087,0)" xlink:href="#bm"/><use transform="matrix(0.06790123456790124,0,0,0.06790123456790124,50.111111111111114,0)" xlink:href="#aK"/></g><g id="C"><use transform="matrix(0.06790123456790124,0,0,0.06790123456790124,0,0)" xlink:href="#aP"/><use transform="matrix(0.06790123456790124,0,0,0.06790123456790124,12.222222222222223,0)" xlink:href="#bk"/><use transform="matrix(0.06790123456790124,0,0,0.06790123456790124,17.58641975308642,0)" xlink:href="#aO"/><use transform="matrix(0.06790123456790124,0,0,0.06790123456790124,31.16666666666667,0)" xlink:href="#bw"/><use transform="matrix(0.06790123456790124,0,0,0.06790123456790124,44.74691358024692,0)" xlink:href="#aL"/></g><path d="M33-154v-36h34v36H33zM33 0v-36h34V0H33" id="bx"/><path d="M134-131c28 9 52 24 51 62-1 50-34 73-85 73S17-19 16-69c0-36 21-54 49-61-75-25-45-126 34-121 46 3 78 18 79 63 0 33-17 51-44 57zm-34-11c31 1 46-15 46-44 0-28-17-43-47-42-29 0-46 13-45 42 1 28 16 44 46 44zm1 122c35 0 51-18 51-52 0-30-18-46-53-46-33 0-51 17-51 47 0 34 19 51 53 51" id="by"/><path d="M101-251c68 0 85 55 85 127S166 4 100 4C33 4 14-52 14-124c0-73 17-127 87-127zm-1 229c47 0 54-49 54-102s-4-102-53-102c-51 0-55 48-55 102 0 53 5 102 54 102" id="bz"/><path d="M99-251c64 0 84 50 84 122C183-37 130 33 47-8c-14-7-20-23-25-40l30-5c6 39 69 39 84 7 9-19 16-44 16-74-10 22-31 35-62 35-49 0-73-33-73-83 0-54 28-83 82-83zm-1 141c31-1 51-18 51-49 0-36-14-67-51-67-34 0-49 23-49 58 0 34 15 58 49 58" id="bA"/><g id="D"><use transform="matrix(0.05,0,0,0.05,0,0)" xlink:href="#bb"/><use transform="matrix(0.05,0,0,0.05,3.95,0)" xlink:href="#bf"/><use transform="matrix(0.05,0,0,0.05,13.949999999999998,0)" xlink:href="#bd"/><use transform="matrix(0.05,0,0,0.05,22.95,0)" xlink:href="#bc"/><use transform="matrix(0.05,0,0,0.05,32.95,0)" xlink:href="#bb"/><use transform="matrix(0.05,0,0,0.05,36.900000000000006,0)" xlink:href="#aS"/><use transform="matrix(0.05,0,0,0.05,46.900000000000006,0)" xlink:href="#bf"/><use transform="matrix(0.05,0,0,0.05,56.900000000000006,0)" xlink:href="#aR"/><use transform="matrix(0.05,0,0,0.05,65.9,0)" xlink:href="#be"/><use transform="matrix(0.05,0,0,0.05,70.9,0)" xlink:href="#bx"/><use transform="matrix(0.05,0,0,0.05,75.9,0)" xlink:href="#by"/><use transform="matrix(0.05,0,0,0.05,85.9,0)" xlink:href="#bz"/><use transform="matrix(0.05,0,0,0.05,95.9,0)" xlink:href="#bA"/><use transform="matrix(0.05,0,0,0.05,105.9,0)" xlink:href="#bz"/></g><path d="M87 75C49 33 22-17 22-94c0-76 28-126 65-167h31c-38 41-64 92-64 168S80 34 118 75H87" id="bB"/><path d="M68-38c1 34 0 65-14 84H32c9-13 17-26 17-46H33v-38h35" id="bC"/><g id="E"><use transform="matrix(0.05,0,0,0.05,0,0)" xlink:href="#bB"/><use transform="matrix(0.05,0,0,0.05,5.95,0)" xlink:href="#bd"/><use transform="matrix(0.05,0,0,0.05,14.949999999999998,0)" xlink:href="#aR"/><use transform="matrix(0.05,0,0,0.05,23.95,0)" xlink:href="#aR"/><use transform="matrix(0.05,0,0,0.05,32.95,0)" xlink:href="#bC"/></g><path d="M24-231v-30h32v30H24zM-9 49c24 4 33-6 33-30v-209h32V24c2 40-23 58-65 49V49" id="bD"/><g id="F"><use transform="matrix(0.05,0,0,0.05,0,0)" xlink:href="#bD"/><use transform="matrix(0.05,0,0,0.05,3.95,0)" xlink:href="#aR"/><use transform="matrix(0.05,0,0,0.05,12.949999999999998,0)" xlink:href="#bC"/></g><path d="M210-169c-67 3-38 105-44 169h-31v-121c0-29-5-50-35-48C34-165 62-65 56 0H25l-1-190h30c1 10-1 24 2 32 10-44 99-50 107 0 11-21 27-35 58-36 85-2 47 119 55 194h-31v-121c0-29-5-49-35-48" id="bE"/><path d="M33-261c38 41 65 92 65 168S71 34 33 75H2C39 34 66-17 66-93S39-220 2-261h31" id="bF"/><g id="G"><use transform="matrix(0.05,0,0,0.05,0,0)" xlink:href="#aT"/><use transform="matrix(0.05,0,0,0.05,3.95,0)" xlink:href="#bE"/><use transform="matrix(0.05,0,0,0.05,18.900000000000002,0)" xlink:href="#bu"/><use transform="matrix(0.05,0,0,0.05,28.900000000000002,0)" xlink:href="#bF"/></g><g id="H"><use transform="matrix(0.05,0,0,0.05,0,0)" xlink:href="#aR"/><use transform="matrix(0.05,0,0,0.05,9,0)" xlink:href="#br"/><use transform="matrix(0.05,0,0,0.05,21.950000000000003,0)" xlink:href="#bc"/><use transform="matrix(0.05,0,0,0.05,31.950000000000003,0)" xlink:href="#aU"/></g><g id="I"><use transform="matrix(0.05,0,0,0.05,0,0)" xlink:href="#aU"/><use transform="matrix(0.05,0,0,0.05,10,0)" xlink:href="#aQ"/><use transform="matrix(0.05,0,0,0.05,15.949999999999998,0)" xlink:href="#bf"/><use transform="matrix(0.05,0,0,0.05,25.950000000000003,0)" xlink:href="#bd"/><use transform="matrix(0.05,0,0,0.05,34.95,0)" xlink:href="#aY"/><use transform="matrix(0.05,0,0,0.05,44.95,0)" xlink:href="#aR"/><use transform="matrix(0.05,0,0,0.05,53.95,0)" xlink:href="#aR"/></g><g id="J"><use transform="matrix(0.05,0,0,0.05,0,0)" xlink:href="#bd"/><use transform="matrix(0.05,0,0,0.05,9,0)" xlink:href="#bb"/><use transform="matrix(0.05,0,0,0.05,12.949999999999998,0)" xlink:href="#aV"/><use transform="matrix(0.05,0,0,0.05,22.95,0)" xlink:href="#aR"/><use transform="matrix(0.05,0,0,0.05,31.950000000000003,0)" xlink:href="#be"/><use transform="matrix(0.05,0,0,0.05,36.95,0)" xlink:href="#aY"/><use transform="matrix(0.05,0,0,0.05,46.95,0)" xlink:href="#aQ"/></g><g id="K"><use transform="matrix(0.05,0,0,0.05,0,0)" xlink:href="#bf"/><use transform="matrix(0.05,0,0,0.05,10,0)" xlink:href="#bt"/></g><g id="L"><use transform="matrix(0.05,0,0,0.05,0,0)" xlink:href="#aR"/><use transform="matrix(0.05,0,0,0.05,9,0)" xlink:href="#aY"/><use transform="matrix(0.05,0,0,0.05,19,0)" xlink:href="#aQ"/><use transform="matrix(0.05,0,0,0.05,24.95,0)" xlink:href="#aZ"/><use transform="matrix(0.05,0,0,0.05,33.95,0)" xlink:href="#aY"/><use transform="matrix(0.05,0,0,0.05,43.95,0)" xlink:href="#aQ"/><use transform="matrix(0.05,0,0,0.05,49.900000000000006,0)" xlink:href="#aR"/><use transform="matrix(0.05,0,0,0.05,58.900000000000006,0)" xlink:href="#aT"/><use transform="matrix(0.05,0,0,0.05,62.85,0)" xlink:href="#aX"/><use transform="matrix(0.05,0,0,0.05,72.85000000000001,0)" xlink:href="#aY"/></g><g id="M"><use transform="matrix(0.05,0,0,0.05,0,0)" xlink:href="#aU"/><use transform="matrix(0.05,0,0,0.05,10,0)" xlink:href="#aQ"/><use transform="matrix(0.05,0,0,0.05,15.949999999999998,0)" xlink:href="#bf"/><use transform="matrix(0.05,0,0,0.05,25.950000000000003,0)" xlink:href="#bd"/><use transform="matrix(0.05,0,0,0.05,34.95,0)" xlink:href="#aY"/><use transform="matrix(0.05,0,0,0.05,44.95,0)" xlink:href="#aR"/><use transform="matrix(0.05,0,0,0.05,53.95,0)" xlink:href="#aR"/></g><g id="N"><use transform="matrix(0.05,0,0,0.05,0,0)" xlink:href="#aI"/><use transform="matrix(0.05,0,0,0.05,10,0)" xlink:href="#aP"/><use transform="matrix(0.05,0,0,0.05,19,0)" xlink:href="#aK"/><use transform="matrix(0.05,0,0,0.05,24,0)" xlink:href="#bl"/><use transform="matrix(0.05,0,0,0.05,27.950000000000003,0)" xlink:href="#bj"/><use transform="matrix(0.05,0,0,0.05,36.95,0)" xlink:href="#aL"/></g><g id="O"><use transform="matrix(0.05,0,0,0.05,0,0)" xlink:href="#aK"/><use transform="matrix(0.05,0,0,0.05,5,0)" xlink:href="#aL"/><use transform="matrix(0.05,0,0,0.05,15,0)" xlink:href="#aH"/><use transform="matrix(0.05,0,0,0.05,29.950000000000003,0)" xlink:href="#aN"/><use transform="matrix(0.05,0,0,0.05,39.95,0)" xlink:href="#aO"/></g><g id="P"><use transform="matrix(0.07407407407407408,0,0,0.07407407407407408,0,0)" xlink:href="#bl"/><use transform="matrix(0.07407407407407408,0,0,0.07407407407407408,5.851851851851853,0)" xlink:href="#aJ"/></g><g id="Q"><use transform="matrix(0.07407407407407408,0,0,0.07407407407407408,0,0)" xlink:href="#bl"/><use transform="matrix(0.07407407407407408,0,0,0.07407407407407408,5.851851851851853,0)" xlink:href="#aK"/></g><path fill="#fff" d="M101-234c-31-9-42 10-38 44h38v23H63V0H32v-167H5v-23h27c-7-52 17-82 69-68v24" id="bG"/><g id="R"><use transform="matrix(0.07407407407407408,0,0,0.07407407407407408,0,0)" xlink:href="#bG"/><use transform="matrix(0.07407407407407408,0,0,0.07407407407407408,7.407407407407408,0)" xlink:href="#bl"/><use transform="matrix(0.07407407407407408,0,0,0.07407407407407408,13.259259259259261,0)" xlink:href="#aM"/><use transform="matrix(0.07407407407407408,0,0,0.07407407407407408,22.074074074074076,0)" xlink:href="#aJ"/><use transform="matrix(0.07407407407407408,0,0,0.07407407407407408,35.40740740740741,0)" xlink:href="#aK"/></g><path fill="#fff" d="M84 4C-5 8 30-112 23-190h32v120c0 31 7 50 39 49 72-2 45-101 50-169h31l1 190h-30c-1-10 1-25-2-33-11 22-28 36-60 37" id="bH"/><path fill="#fff" d="M103-251c84 0 111 97 45 133-19 10-37 24-39 52H78c0-63 77-55 77-114 0-30-21-42-52-43-32 0-53 17-56 46l-32-2c7-45 34-72 88-72zM77 0v-35h34V0H77" id="bI"/><g id="S"><use transform="matrix(0.07407407407407408,0,0,0.07407407407407408,0,0)" xlink:href="#bh"/><use transform="matrix(0.07407407407407408,0,0,0.07407407407407408,14.814814814814817,0)" xlink:href="#bH"/><use transform="matrix(0.07407407407407408,0,0,0.07407407407407408,29.629629629629633,0)" xlink:href="#bl"/><use transform="matrix(0.07407407407407408,0,0,0.07407407407407408,35.48148148148149,0)" xlink:href="#bk"/><use transform="matrix(0.07407407407407408,0,0,0.07407407407407408,41.333333333333336,0)" xlink:href="#bw"/><use transform="matrix(0.07407407407407408,0,0,0.07407407407407408,56.14814814814815,0)" xlink:href="#bI"/></g><path d="M137-103V0h-34v-103L8-248h37l75 118 75-118h37" id="bJ"/><g id="T"><use transform="matrix(0.05,0,0,0.05,0,0)" xlink:href="#bJ"/><use transform="matrix(0.05,0,0,0.05,10.35,0)" xlink:href="#aY"/><use transform="matrix(0.05,0,0,0.05,20.35,0)" xlink:href="#aR"/></g><path d="M190 0L58-211 59 0H30v-248h39L202-35l-2-213h31V0h-41" id="bK"/><g id="U"><use transform="matrix(0.05,0,0,0.05,0,0)" xlink:href="#bK"/><use transform="matrix(0.05,0,0,0.05,12.950000000000001,0)" xlink:href="#bf"/></g><path d="M126-127c33 6 58 20 58 59 0 88-139 92-164 29-3-8-5-16-6-25l32-3c6 27 21 44 54 44 32 0 52-15 52-46 0-38-36-46-79-43v-28c39 1 72-4 72-42 0-27-17-43-46-43-28 0-47 15-49 41l-32-3c6-42 35-63 81-64 48-1 79 21 79 65 0 36-21 52-52 59" id="bL"/><path d="M27 0v-27h64v-190l-56 39v-29l58-41h29v221h61V0H27" id="bM"/><g id="V"><use transform="matrix(0.05,0,0,0.05,0,0)" xlink:href="#bb"/><use transform="matrix(0.05,0,0,0.05,3.95,0)" xlink:href="#bf"/><use transform="matrix(0.05,0,0,0.05,13.949999999999998,0)" xlink:href="#bd"/><use transform="matrix(0.05,0,0,0.05,22.95,0)" xlink:href="#bc"/><use transform="matrix(0.05,0,0,0.05,32.95,0)" xlink:href="#bb"/><use transform="matrix(0.05,0,0,0.05,36.900000000000006,0)" xlink:href="#aS"/><use transform="matrix(0.05,0,0,0.05,46.900000000000006,0)" xlink:href="#bf"/><use transform="matrix(0.05,0,0,0.05,56.900000000000006,0)" xlink:href="#aR"/><use transform="matrix(0.05,0,0,0.05,65.9,0)" xlink:href="#be"/><use transform="matrix(0.05,0,0,0.05,70.9,0)" xlink:href="#bx"/><use transform="matrix(0.05,0,0,0.05,75.9,0)" xlink:href="#bL"/><use transform="matrix(0.05,0,0,0.05,85.9,0)" xlink:href="#bz"/><use transform="matrix(0.05,0,0,0.05,95.9,0)" xlink:href="#bL"/><use transform="matrix(0.05,0,0,0.05,105.9,0)" xlink:href="#bM"/></g><g id="W"><use transform="matrix(0.05,0,0,0.05,0,0)" xlink:href="#bB"/><use transform="matrix(0.05,0,0,0.05,5.95,0)" xlink:href="#aS"/><use transform="matrix(0.05,0,0,0.05,15.949999999999998,0)" xlink:href="#be"/><use transform="matrix(0.05,0,0,0.05,20.95,0)" xlink:href="#bE"/><use transform="matrix(0.05,0,0,0.05,35.9,0)" xlink:href="#bb"/><use transform="matrix(0.05,0,0,0.05,39.85,0)" xlink:href="#bF"/></g><path d="M145-31C134-9 116 4 85 4 32 4 16-35 15-94c0-59 17-99 70-100 32-1 48 14 60 33 0-11-1-24 2-32h30l-1 268h-32zM93-21c41 0 51-33 51-76s-8-73-50-73c-40 0-46 35-46 75s5 74 45 74" id="bN"/><g id="Y"><use transform="matrix(0.05,0,0,0.05,0,0)" xlink:href="#aQ"/><use transform="matrix(0.05,0,0,0.05,5.95,0)" xlink:href="#aY"/><use transform="matrix(0.05,0,0,0.05,15.949999999999998,0)" xlink:href="#bN"/><use transform="matrix(0.05,0,0,0.05,25.950000000000003,0)" xlink:href="#aV"/><use transform="matrix(0.05,0,0,0.05,35.95,0)" xlink:href="#aY"/><use transform="matrix(0.05,0,0,0.05,45.95,0)" xlink:href="#aR"/><use transform="matrix(0.05,0,0,0.05,54.95,0)" xlink:href="#be"/></g><g id="Z"><use transform="matrix(0.05,0,0,0.05,0,0)" xlink:href="#aQ"/><use transform="matrix(0.05,0,0,0.05,5.95,0)" xlink:href="#aY"/><use transform="matrix(0.05,0,0,0.05,15.949999999999998,0)" xlink:href="#aR"/><use transform="matrix(0.05,0,0,0.05,24.95,0)" xlink:href="#aU"/><use transform="matrix(0.05,0,0,0.05,34.95,0)" xlink:href="#bf"/><use transform="matrix(0.05,0,0,0.05,44.95,0)" xlink:href="#aW"/><use transform="matrix(0.05,0,0,0.05,54.95,0)" xlink:href="#aR"/><use transform="matrix(0.05,0,0,0.05,63.95,0)" xlink:href="#aY"/></g></defs></g></svg>